<svg width="16" height="16" viewBox="0 0 16 16" fill="none" xmlns="http://www.w3.org/2000/svg">
<g clip-path="url(#clip0_197_1199)">
<path d="M15.5662 13.4688C15.8443 13.7469 16.0006 14.1242 16.0006 14.5175C16.0006 14.9108 15.8443 15.2881 15.5662 15.5662C15.2881 15.8443 14.9108 16.0006 14.5175 16.0006C14.1242 16.0006 13.7469 15.8443 13.4688 15.5662L8.24001 10.3373C8.17643 10.2737 8.09021 10.238 8.0003 10.238C7.9104 10.238 7.82417 10.2737 7.7606 10.3373L2.53176 15.5662C2.2532 15.8423 1.87663 15.9968 1.48443 15.9959C1.09223 15.9951 0.71634 15.8389 0.43901 15.5616C0.161681 15.2842 0.00549176 14.9084 0.00461822 14.5162C0.00374469 14.124 0.158258 13.7474 0.434349 13.4688L5.66326 8.2401C5.69474 8.20862 5.71971 8.17125 5.73675 8.13013C5.75378 8.089 5.76255 8.04491 5.76255 8.0004C5.76255 7.95588 5.75378 7.9118 5.73675 7.87067C5.71971 7.82954 5.69474 7.79217 5.66326 7.76069L0.434381 2.53176C0.156251 2.25363 0 1.8764 0 1.48307C0 1.08973 0.156251 0.71251 0.434381 0.434381C0.71251 0.156251 1.08973 0 1.48307 0C1.8764 0 2.25363 0.156251 2.53176 0.434381L7.7606 5.66341C7.82419 5.72696 7.9104 5.76266 8.0003 5.76266C8.0902 5.76266 8.17642 5.72696 8.24001 5.66341L13.4688 0.434381C13.7469 0.156251 14.1242 2.19907e-08 14.5175 2.70666e-08C14.9108 3.21425e-08 15.2881 0.156251 15.5662 0.434381C15.8443 0.71251 16.0006 1.08973 16.0006 1.48307C16.0006 1.8764 15.8443 2.25363 15.5662 2.53176L10.3373 7.76069C10.3058 7.79217 10.2808 7.82954 10.2638 7.87067C10.2468 7.9118 10.238 7.95588 10.238 8.0004C10.238 8.04491 10.2468 8.089 10.2638 8.13013C10.2808 8.17125 10.3058 8.20862 10.3373 8.2401L15.5662 13.4688Z" fill="white"/>
</g>
<defs>
<clipPath id="clip0_197_1199">
<rect width="16" height="16" fill="white"/>
</clipPath>
</defs>
</svg>
