<svg width="40" height="40" viewBox="0 0 40 40" fill="none" xmlns="http://www.w3.org/2000/svg">
<g clip-path="url(#clip0_146_239)">
<mask id="mask0_146_239" style="mask-type:luminance" maskUnits="userSpaceOnUse" x="0" y="0" width="40" height="40">
<path d="M0 -3.8147e-06H40V40H0V-3.8147e-06Z" fill="white"/>
</mask>
<g mask="url(#mask0_146_239)">
<path d="M18.5879 36.0717H5.41741C4.59687 36.0717 3.92932 35.4041 3.92932 34.5836V5.4169C3.92932 4.59637 4.59687 3.92881 5.41741 3.92881H34.5841C35.4046 3.92881 36.0722 4.59637 36.0722 5.4169V18.5874C37.1712 18.8113 38.1827 19.2784 39.0484 19.9296V5.4169C39.0484 2.9553 37.0457 0.952618 34.5841 0.952618H5.41741C2.9558 0.952618 0.953125 2.9553 0.953125 5.4169V34.5836C0.953125 37.0452 2.9558 39.0479 5.41741 39.0479H19.9301C19.2789 38.1822 18.8118 37.1707 18.5879 36.0717Z" fill="#1B1B1B"/>
<path d="M27.3668 19.1075V31.9795H24.3906V16.1313C26.0343 16.1313 27.3668 17.4638 27.3668 19.1075Z" fill="#1B1B1B"/>
<path d="M19.107 27.3662H31.6815V24.39H16.1309C16.1309 26.0338 17.4634 27.3662 19.107 27.3662Z" fill="#1B1B1B"/>
<path d="M25.8785 37.5596C24.2349 37.5596 22.9023 36.2271 22.9023 34.5834C22.9023 32.9396 24.2349 31.6072 25.8785 31.6072C27.5222 31.6072 28.8547 32.9396 28.8547 34.5834C28.8547 36.2271 27.5222 37.5596 25.8785 37.5596Z" stroke="#1B1B1B" stroke-width="3" stroke-miterlimit="10"/>
<path d="M34.5856 28.8545C32.9419 28.8545 31.6094 27.5221 31.6094 25.8783C31.6094 24.2346 32.9419 22.9021 34.5856 22.9021C36.2292 22.9021 37.5618 24.2346 37.5618 25.8783C37.5618 27.5221 36.2292 28.8545 34.5856 28.8545Z" stroke="#1B1B1B" stroke-width="3" stroke-miterlimit="10"/>
<path d="M27.3668 9.80664H24.3906V6.83045H27.3668V9.80664Z" fill="#1B1B1B"/>
<path d="M9.73205 9.80664H6.75586V6.83045H9.73205V9.80664Z" fill="#1B1B1B"/>
<path d="M15.611 9.80664H12.6348V6.83045H15.611V9.80664Z" fill="#1B1B1B"/>
<path d="M33.2457 9.80664H30.2695V6.83045H33.2457V9.80664Z" fill="#1B1B1B"/>
<path d="M9.80822 33.1699H6.83203V30.1937H9.80822V33.1699Z" fill="#1B1B1B"/>
<path d="M15.5367 33.1699H12.5605V30.1937H15.5367V33.1699Z" fill="#1B1B1B"/>
<path d="M21.4899 9.80664H18.5137V6.83045H21.4899V9.80664Z" fill="#1B1B1B"/>
</g>
</g>
<defs>
<clipPath id="clip0_146_239">
<rect width="40" height="40" fill="white"/>
</clipPath>
</defs>
</svg>
