<svg width="20" height="20" viewBox="0 0 20 20" fill="none" xmlns="http://www.w3.org/2000/svg">
<path fill-rule="evenodd" clip-rule="evenodd" d="M10.0013 1.6665C8.35313 1.6665 6.74196 2.15525 5.37155 3.07092C4.00114 3.9866 2.93304 5.28809 2.30231 6.81081C1.67158 8.33353 1.50655 10.0091 1.8281 11.6256C2.14964 13.2421 2.94331 14.727 4.10875 15.8924C5.27419 17.0578 6.75905 17.8515 8.37555 18.173C9.99206 18.4946 11.6676 18.3296 13.1903 17.6988C14.7131 17.0681 16.0145 16 16.9302 14.6296C17.8459 13.2592 18.3346 11.648 18.3346 9.99984C18.3346 8.90549 18.1191 7.82186 17.7003 6.81081C17.2815 5.79976 16.6677 4.8811 15.8939 4.10728C15.12 3.33346 14.2014 2.71963 13.1903 2.30084C12.1793 1.88205 11.0957 1.6665 10.0013 1.6665ZM12.943 12.9415C12.8851 12.9997 12.8162 13.0458 12.7404 13.0773C12.6646 13.1088 12.5834 13.125 12.5013 13.125C12.4192 13.125 12.338 13.1088 12.2622 13.0773C12.1864 13.0458 12.1176 12.9997 12.0596 12.9415L9.55964 10.4415C9.50147 10.3836 9.45533 10.3148 9.42387 10.239C9.39241 10.1632 9.37624 10.0819 9.37631 9.99984V5.83317C9.37631 5.66741 9.44215 5.50844 9.55936 5.39123C9.67657 5.27402 9.83555 5.20817 10.0013 5.20817C10.1671 5.20817 10.326 5.27402 10.4432 5.39123C10.5605 5.50844 10.6263 5.66741 10.6263 5.83317V9.74067L12.943 12.0582C13.001 12.1161 13.0471 12.185 13.0785 12.2608C13.1099 12.3366 13.1261 12.4178 13.1261 12.4998C13.1261 12.5819 13.1099 12.6631 13.0785 12.7389C13.0471 12.8147 13.001 12.8835 12.943 12.9415Z" fill="#616161"/>
</svg>
