<svg width="40" height="40" viewBox="0 0 40 40" fill="none" xmlns="http://www.w3.org/2000/svg">
<path d="M35.625 8.09519C35.625 9.73887 34.2259 11.0714 32.5 11.0714H29.375V5.41662C29.375 3.77294 30.7741 2.44043 32.5 2.44043C34.2259 2.44043 35.625 3.77294 35.625 5.41662V8.09519Z" stroke="#1B1B1B" stroke-width="3" stroke-miterlimit="10" stroke-linecap="round" stroke-linejoin="round"/>
<path d="M35.625 34.5835C35.625 36.2271 34.2259 37.5597 32.5 37.5597C30.7741 37.5597 29.375 36.2271 29.375 34.5835V28.9287H32.5C34.2259 28.9287 35.625 30.2612 35.625 31.9049V34.5835Z" stroke="#1B1B1B" stroke-width="3" stroke-miterlimit="10" stroke-linecap="round" stroke-linejoin="round"/>
<path d="M32.5 37.5595H7.5C5.77414 37.5595 4.375 36.227 4.375 34.5833V5.41662C4.375 3.77294 5.77414 2.44043 7.5 2.44043H32.5" stroke="#1B1B1B" stroke-width="3" stroke-miterlimit="10" stroke-linecap="round" stroke-linejoin="round"/>
<path d="M29.375 17.0239V28.9287" stroke="#1B1B1B" stroke-width="3" stroke-miterlimit="10" stroke-linecap="round" stroke-linejoin="round"/>
<path d="M10.625 11.0713H23.125" stroke="#1B1B1B" stroke-width="3" stroke-miterlimit="10" stroke-linecap="round" stroke-linejoin="round"/>
<path d="M10.625 17.0239H23.125" stroke="#1B1B1B" stroke-width="3" stroke-miterlimit="10" stroke-linecap="round" stroke-linejoin="round"/>
<path d="M10.625 22.9761H23.125" stroke="#1B1B1B" stroke-width="3" stroke-miterlimit="10" stroke-linecap="round" stroke-linejoin="round"/>
<path d="M10.625 28.9287H23.125" stroke="#1B1B1B" stroke-width="3" stroke-miterlimit="10" stroke-linecap="round" stroke-linejoin="round"/>
</svg>
