<svg width="15" height="15" viewBox="0 0 15 15" fill="none" xmlns="http://www.w3.org/2000/svg">
<g clip-path="url(#clip0_225_662)">
<path fill-rule="evenodd" clip-rule="evenodd" d="M14.7261 13.1942C14.6265 13.2935 14.5064 13.4204 14.379 13.5547C14.0612 13.892 13.6642 14.3113 13.4153 14.4814C12.106 15.376 10.3544 14.9479 9.11544 14.4317C7.481 13.7507 5.70154 12.4954 4.10377 10.8975C2.50452 9.29939 1.24938 7.51937 0.568372 5.88587C0.0527474 4.64661 -0.376247 2.89466 0.518568 1.58509C0.68849 1.33606 1.10875 0.939648 1.44561 0.621221C1.58037 0.494248 1.70635 0.374277 1.80596 0.27499C1.9828 0.0990261 2.22213 0.000244141 2.4716 0.000244141C2.72107 0.000244141 2.9604 0.0990261 3.13724 0.27499L5.54626 2.68331C5.72213 2.86014 5.82085 3.0994 5.82085 3.3488C5.82085 3.5982 5.72213 3.83746 5.54626 4.0143L4.89001 4.66923C4.67085 4.88679 4.52779 5.1693 4.48214 5.47472C4.43648 5.78014 4.49066 6.09214 4.63662 6.36429C5.53925 8.06791 6.93275 9.46117 8.63653 10.3635C8.90861 10.5094 9.22055 10.5635 9.52588 10.5178C9.83121 10.4721 10.1136 10.3289 10.331 10.1097L10.9856 9.45475C11.1625 9.27879 11.4018 9.18001 11.6513 9.18001C11.9008 9.18001 12.1401 9.27879 12.3169 9.45475L14.7261 11.8635C14.902 12.0403 15.0007 12.2795 15.0007 12.5288C15.0007 12.7782 14.902 13.0174 14.7261 13.1942Z" fill="white"/>
</g>
<defs>
<clipPath id="clip0_225_662">
<rect width="15" height="15" fill="white"/>
</clipPath>
</defs>
</svg>
