<svg width="16" height="16" viewBox="0 0 16 16" fill="none" xmlns="http://www.w3.org/2000/svg">
<g clip-path="url(#clip0_197_1201)">
<path d="M9.48307 17.2169C9.48307 17.6102 9.32682 17.9874 9.04869 18.2656C8.77056 18.5437 8.39333 18.7 8 18.7C7.60667 18.7 7.22944 18.5437 6.95131 18.2656C6.67318 17.9874 6.51693 17.6102 6.51693 17.2169L6.517 9.82216C6.517 9.73226 6.48128 9.64604 6.41771 9.58246C6.35413 9.51889 6.26791 9.48318 6.17801 9.48317L-1.21674 9.48322C-1.60894 9.48148 -1.98448 9.32446 -2.26119 9.04652C-2.5379 8.76858 -2.69326 8.39235 -2.69326 8.00015C-2.69326 7.60795 -2.53791 7.23172 -2.2612 6.95377C-1.9845 6.67583 -1.60896 6.5188 -1.21676 6.51706L6.1779 6.51719C6.22241 6.51719 6.2665 6.50843 6.30763 6.49139C6.34876 6.47436 6.38613 6.44939 6.41761 6.41791C6.44909 6.38643 6.47405 6.34906 6.49109 6.30793C6.50812 6.2668 6.51689 6.22272 6.51689 6.1782L6.51693 -1.21659C6.51693 -1.60992 6.67318 -1.98715 6.95131 -2.26528C7.22944 -2.54341 7.60667 -2.69966 8 -2.69966C8.39333 -2.69966 8.77056 -2.54341 9.04869 -2.26528C9.32682 -1.98715 9.48307 -1.60992 9.48307 -1.21659L9.48294 6.17824C9.48296 6.26814 9.51869 6.35435 9.58225 6.41792C9.64582 6.48149 9.73203 6.51721 9.82193 6.51724L17.2167 6.51708C17.6101 6.51708 17.9873 6.67333 18.2654 6.95146C18.5436 7.22959 18.6998 7.60682 18.6998 8.00015C18.6998 8.39348 18.5436 8.77071 18.2654 9.04884C17.9873 9.32696 17.6101 9.48322 17.2167 9.48322L9.82193 9.48324C9.77741 9.48324 9.73333 9.492 9.6922 9.50904C9.65107 9.52607 9.6137 9.55104 9.58222 9.58252C9.55074 9.614 9.52577 9.65137 9.50873 9.6925C9.4917 9.73363 9.48293 9.77771 9.48294 9.82223L9.48307 17.2169Z" fill="#1A5AFF"/>
</g>
<defs>
<clipPath id="clip0_197_1201">
<rect width="16" height="16" fill="white"/>
</clipPath>
</defs>
</svg>
