<svg width="81" height="14" viewBox="0 0 81 14" fill="none" xmlns="http://www.w3.org/2000/svg">
<path d="M12.6681 4.97642C12.5651 4.68909 12.2917 4.48019 11.9623 4.43659L8.62535 3.9959L7.13426 1.25763C6.83902 0.716208 5.86324 0.716208 5.568 1.25763L4.07691 3.9959L0.747911 4.43659C0.419433 4.48019 0.146037 4.68982 0.0429772 4.97728C-0.0600825 5.26388 0.0255549 5.57911 0.263973 5.7902L2.67844 7.92907L2.10886 10.9468C2.05298 11.2445 2.18753 11.5462 2.4565 11.724C2.72642 11.901 3.08371 11.9241 3.37721 11.7836L6.3508 10.3585L9.33309 11.7836C9.46068 11.8447 9.60046 11.8749 9.7393 11.8749C9.92009 11.8749 10.1009 11.8233 10.2538 11.7241C10.5229 11.5454 10.6573 11.2446 10.6014 10.9469L10.0328 7.9292L12.4473 5.79032C12.6857 5.57984 12.7712 5.26388 12.6681 4.97642Z" fill="#DBB324"/>
<path d="M29.4689 4.97642C29.3658 4.68909 29.0925 4.48019 28.763 4.43659L25.4261 3.9959L23.935 1.25763C23.6398 0.716208 22.664 0.716208 22.3688 1.25763L20.8777 3.9959L17.5487 4.43659C17.2202 4.48019 16.9468 4.68982 16.8438 4.97728C16.7407 5.26388 16.8263 5.57911 17.0648 5.7902L19.4792 7.92907L18.9096 10.9468C18.8538 11.2445 18.9883 11.547 19.2573 11.724C19.5264 11.901 19.8845 11.9241 20.178 11.7836L23.1516 10.3585L26.1339 11.7836C26.2615 11.8447 26.4012 11.8749 26.5401 11.8749C26.7209 11.8749 26.9017 11.8233 27.0546 11.7241C27.3237 11.5454 27.4581 11.2446 27.4022 10.9469L26.8336 7.9292L29.248 5.79032C29.4865 5.57984 29.572 5.26388 29.4689 4.97642Z" fill="#DBB324"/>
<path d="M46.2736 4.97642C46.1705 4.68909 45.8971 4.48019 45.5677 4.43659L42.2308 3.9959L40.7397 1.25763C40.4445 0.716208 39.4687 0.716208 39.1735 1.25763L37.6824 3.9959L34.3534 4.43659C34.0249 4.48019 33.7515 4.68982 33.6484 4.97728C33.5454 5.26388 33.631 5.57911 33.8694 5.7902L36.2839 7.92907L35.7143 10.9468C35.6584 11.2445 35.793 11.5462 36.062 11.724C36.3319 11.901 36.6892 11.9241 36.9827 11.7836L39.9561 10.3585L42.9384 11.7836C43.066 11.8447 43.2058 11.8749 43.3446 11.8749C43.5254 11.8749 43.7062 11.8233 43.8591 11.7241C44.1282 11.5454 44.2627 11.2446 44.2068 10.9469L43.6381 7.9292L46.0526 5.79032C46.2912 5.57984 46.3767 5.26388 46.2736 4.97642Z" fill="#DBB324"/>
<path d="M63.0744 4.97642C62.9713 4.68909 62.6979 4.48019 62.3685 4.43659L59.0316 3.9959L57.5405 1.25763C57.2453 0.716208 56.2695 0.716208 55.9742 1.25763L54.4832 3.9959L51.1542 4.43659C50.8257 4.48019 50.5523 4.68982 50.4492 4.97728C50.3462 5.26388 50.4318 5.57911 50.6702 5.7902L53.0847 7.92907L52.5151 10.9468C52.4592 11.2445 52.5938 11.5462 52.8628 11.724C53.1327 11.901 53.49 11.9241 53.7835 11.7836L56.7569 10.3585L59.7392 11.7836C59.8668 11.8447 60.0066 11.8749 60.1454 11.8749C60.3262 11.8749 60.507 11.8233 60.6599 11.7241C60.929 11.5454 61.0634 11.2446 61.0076 10.9469L60.4389 7.9292L62.8534 5.79032C63.0918 5.57984 63.1774 5.26388 63.0744 4.97642Z" fill="#DBB324"/>
<path d="M79.8771 4.97642C79.7731 4.68909 79.5007 4.48019 79.1712 4.43659L75.8343 3.9959L74.3433 1.25763C74.048 0.716208 73.0722 0.716208 72.777 1.25763L71.2859 3.9959L67.9569 4.43659C67.6284 4.48019 67.355 4.68982 67.252 4.97728C67.1489 5.26388 67.2345 5.57911 67.473 5.7902L69.8874 7.92907L69.3178 10.9468C69.262 11.2445 69.3965 11.5462 69.6655 11.724C69.8175 11.824 69.9975 11.8748 70.1782 11.8748C70.318 11.8748 70.4578 11.8446 70.587 11.7834L73.5606 10.3583L76.5437 11.7834C76.8372 11.9256 77.1935 11.9017 77.4636 11.7231C77.7318 11.5453 77.8663 11.2445 77.8104 10.9466L77.2418 7.92895L79.6563 5.79007C79.8945 5.57984 79.9794 5.26388 79.8771 4.97642Z" fill="#DBB324"/>
</svg>
