<svg width="30" height="20" viewBox="0 0 30 20" fill="none" xmlns="http://www.w3.org/2000/svg">
<path d="M5.46766 8.7048C4.68696 8.7048 3.90719 8.36906 3.56707 8.18831L3.17773 9.65947C3.65519 9.96945 4.54861 10.2532 5.60601 10.2532C7.68181 10.2532 8.95332 9.16926 8.95332 7.685C8.95332 6.58792 8.16028 5.82657 7.17874 5.64582V5.62006C8.1859 5.25908 8.67663 4.56183 8.67663 3.67126C8.67663 2.52266 7.70735 1.58057 5.95847 1.58057C4.90108 1.58057 3.91954 1.89055 3.42881 2.21319L3.81916 3.63292C4.15927 3.42641 4.8632 3.12953 5.53024 3.12953C6.33555 3.12953 6.73824 3.50361 6.73824 4.007C6.73824 4.71683 5.92067 4.96228 5.27925 4.97486H4.53643V6.3814H5.31713C6.15932 6.3814 6.96462 6.756 6.96462 7.58204C6.96462 8.21407 6.46155 8.7048 5.46766 8.7048Z" fill="white"/>
<path d="M13.3112 10.2531C15.0858 10.2531 16.3317 8.88541 16.3317 7.2204C16.3317 5.47811 15.1739 4.4845 13.802 4.4845C13.0346 4.4845 12.468 4.72935 12.0654 5.15547H12.0275C12.2416 4.17452 12.9968 3.28395 14.6955 3.14205C14.9978 3.11629 15.2242 3.10372 15.4384 3.11629V1.60619C15.2488 1.59352 15.0224 1.59352 14.6699 1.61928C13.3872 1.6839 12.3298 2.09692 11.5122 2.85826C10.631 3.6968 10.0645 5.01357 10.0645 6.58769C10.0644 8.58853 11.134 10.2531 13.3112 10.2531ZM12.0407 6.62663C12.2292 6.20103 12.6565 5.87787 13.1729 5.87787C13.9904 5.87787 14.3931 6.54935 14.3931 7.32387C14.3931 8.17559 13.9659 8.8077 13.2856 8.8077C12.4178 8.8077 12.0028 8.00751 11.9649 7.11693C11.965 6.88458 11.9895 6.73019 12.0407 6.62663Z" fill="white"/>
<path d="M20.1355 10.2532C22.2246 10.2532 23.2441 8.47253 23.2441 5.87801C23.2441 3.58089 22.3885 1.58057 20.199 1.58057C18.0853 1.58057 17.0781 3.50361 17.0781 5.93004C17.0904 8.30444 18.0218 10.2532 20.1355 10.2532ZM20.1734 3.06491C20.9408 3.06491 21.3311 4.04586 21.3311 5.90428C21.3311 7.81423 20.9285 8.7689 20.1856 8.7689C19.4438 8.7689 18.991 7.85308 19.0032 5.93004C18.9911 3.98124 19.4685 3.06491 20.1734 3.06491Z" fill="white"/>
<path d="M25.9139 1.271C24.8443 1.271 23.9888 2.12271 24.0021 3.19404C24.0021 4.22599 24.7941 5.06504 25.9017 5.06504C26.9335 5.06504 27.8269 4.26484 27.8269 3.15509C27.8269 2.13538 27.0471 1.271 25.9139 1.271ZM25.9139 4.16189C25.3986 4.16189 25.0082 3.73577 25.0082 3.18094C25.0082 2.65187 25.3606 2.17423 25.9139 2.17423C26.4928 2.17423 26.8074 2.66445 26.8074 3.16785C26.8074 3.73577 26.4304 4.16189 25.9139 4.16189Z" fill="white"/>
<path d="M13.8689 12.1348C13.8515 12.1348 13.8341 12.1348 13.8157 12.1348C10.1751 12.138 3.07711 12.6451 2.26156 14.538C2.12531 14.8544 2.15194 15.1964 2.33741 15.5006C3.20219 16.9204 8.01463 17.5924 11.8722 17.7368L11.9111 16.6618C6.23593 16.449 3.41017 15.4045 3.22059 14.9736C3.48493 14.3615 7.35683 13.2166 13.8168 13.2108V12.6728L13.8178 13.2108H13.8803C20.4847 13.2108 24.3237 14.3547 24.5297 14.9374C24.3735 15.4025 21.8886 16.3512 16.6279 16.6249L16.5831 15.5124L13.9319 17.2357L16.7124 18.7291L16.6712 17.702C19.2764 17.5637 25.6306 17.0117 25.5768 14.9284C25.5215 12.7217 18.2173 12.1348 13.8689 12.1348Z" fill="white"/>
</svg>
