<svg width="20" height="12" viewBox="0 0 20 12" fill="none" xmlns="http://www.w3.org/2000/svg">
<path d="M19.6107 10.5686C19.5872 10.5167 19.5652 10.4737 19.5449 10.4393C19.2078 9.81856 18.5636 9.05669 17.6128 8.15343L17.5927 8.13274L17.5826 8.1226L17.5724 8.1122H17.5622C17.1307 7.6916 16.8574 7.40879 16.743 7.26401C16.5336 6.98819 16.4867 6.70901 16.6011 6.42613C16.682 6.21241 16.9857 5.76105 17.5115 5.07144C17.7882 4.70597 18.0072 4.41306 18.169 4.19238C19.3357 2.60646 19.8416 1.59305 19.6864 1.15172L19.6261 1.04859C19.5856 0.986501 19.4811 0.929701 19.3127 0.8779C19.1439 0.826207 18.9282 0.817659 18.6651 0.852108L15.7519 0.872683C15.7047 0.855585 15.6373 0.857179 15.5495 0.8779C15.4618 0.89862 15.418 0.909017 15.418 0.909017L15.3673 0.934917L15.327 0.966034C15.2933 0.98661 15.2562 1.0228 15.2157 1.07453C15.1754 1.12607 15.1417 1.18657 15.1148 1.2555C14.7976 2.08979 14.437 2.86547 14.0323 3.5825C13.7827 4.01006 13.5536 4.3806 13.3443 4.69434C13.1353 5.00797 12.9599 5.23905 12.8184 5.38717C12.6767 5.53544 12.5488 5.65422 12.4339 5.74395C12.3193 5.83371 12.2317 5.87164 12.1711 5.85777C12.1103 5.84389 12.0531 5.83013 11.9989 5.81636C11.9046 5.75427 11.8287 5.66983 11.7715 5.56297C11.714 5.45611 11.6753 5.32161 11.6551 5.15957C11.635 4.99743 11.6231 4.85797 11.6197 4.74071C11.6165 4.6236 11.6179 4.45794 11.6248 4.24421C11.6318 4.03038 11.635 3.8857 11.635 3.80985C11.635 3.5478 11.64 3.2634 11.65 2.95658C11.6602 2.64975 11.6684 2.40665 11.6753 2.22756C11.6822 2.04828 11.6854 1.85861 11.6854 1.65865C11.6854 1.45869 11.6735 1.30187 11.65 1.18805C11.6267 1.07438 11.5911 0.964042 11.544 0.857071C11.4967 0.750208 11.4275 0.667544 11.3367 0.60886C11.2456 0.550248 11.1325 0.503736 10.9978 0.469178C10.6404 0.386477 10.1852 0.34174 9.63208 0.334785C8.37781 0.321019 7.57187 0.403828 7.21445 0.583104C7.07284 0.65885 6.94468 0.762343 6.8301 0.893259C6.70868 1.045 6.69175 1.12781 6.7794 1.14143C7.18409 1.20341 7.47058 1.35168 7.63919 1.58609L7.69995 1.7103C7.74722 1.79992 7.79441 1.95859 7.84164 2.18608C7.8888 2.41357 7.91923 2.66522 7.93262 2.94089C7.96628 3.4443 7.96628 3.87523 7.93262 4.23371C7.89886 4.59233 7.86697 4.87152 7.83654 5.07148C7.8061 5.27144 7.76061 5.43347 7.69995 5.55754C7.63919 5.68164 7.59876 5.7575 7.5785 5.78503C7.55827 5.81256 7.5414 5.82991 7.52801 5.83672C7.44036 5.87106 7.34919 5.88856 7.25484 5.88856C7.16035 5.88856 7.04577 5.84023 6.91092 5.74366C6.77611 5.64708 6.63619 5.51443 6.49118 5.34548C6.34616 5.17649 6.18261 4.94034 6.00047 4.637C5.81846 4.33365 5.62962 3.97514 5.43404 3.56145L5.27223 3.26144C5.17108 3.06844 5.0329 2.78741 4.85755 2.4186C4.6821 2.04966 4.52702 1.69277 4.39221 1.34802C4.33832 1.20323 4.25736 1.093 4.14948 1.01715L4.09885 0.98603C4.06519 0.958499 4.01116 0.929266 3.93704 0.898113C3.86281 0.866996 3.78536 0.844682 3.70436 0.830952L0.932682 0.851528C0.649451 0.851528 0.457277 0.917131 0.356088 1.04816L0.315591 1.11014C0.29536 1.14466 0.285156 1.19979 0.285156 1.27568C0.285156 1.35154 0.305387 1.44463 0.345884 1.55486C0.750499 2.52713 1.19051 3.46481 1.66591 4.36803C2.14132 5.27125 2.55444 5.99882 2.90502 6.55009C3.25567 7.10175 3.6131 7.62241 3.97728 8.1118C4.34147 8.60138 4.58254 8.91512 4.70049 9.05296C4.81858 9.19104 4.91133 9.29428 4.97876 9.36322L5.2317 9.61139C5.39354 9.7769 5.63121 9.97512 5.9448 10.2061C6.25847 10.4371 6.60572 10.6646 6.98674 10.8889C7.36783 11.1128 7.81117 11.2955 8.31701 11.4368C8.82278 11.5783 9.31505 11.635 9.79389 11.6077H10.9572C11.1931 11.5868 11.3719 11.511 11.4934 11.3801L11.5336 11.3282C11.5607 11.2871 11.586 11.2231 11.6094 11.1371C11.6331 11.0509 11.6448 10.956 11.6448 10.8527C11.6379 10.5563 11.66 10.2891 11.7105 10.0513C11.7609 9.81349 11.8183 9.63422 11.8826 9.51348C11.9468 9.39285 12.0193 9.29106 12.1 9.20854C12.1809 9.12584 12.2385 9.07574 12.2723 9.0585C12.3059 9.04115 12.3327 9.02937 12.3529 9.02231C12.5148 8.96718 12.7052 9.02057 12.9246 9.18275C13.1438 9.34478 13.3494 9.54485 13.5417 9.78263C13.734 10.0206 13.9649 10.2876 14.2346 10.5841C14.5045 10.8806 14.7404 11.101 14.9427 11.246L15.1449 11.3701C15.28 11.4529 15.4553 11.5288 15.6711 11.5977C15.8866 11.6666 16.0754 11.6839 16.2375 11.6494L18.827 11.6081C19.0831 11.6081 19.2824 11.5648 19.4238 11.4787C19.5654 11.3926 19.6496 11.2976 19.6767 11.1943C19.7038 11.091 19.7052 10.9737 19.6818 10.8425C19.6578 10.7117 19.6342 10.6202 19.6107 10.5686Z" fill="white"/>
</svg>
