<svg width="14" height="14" viewBox="0 0 14 14" fill="none" xmlns="http://www.w3.org/2000/svg">
<path d="M7.0032 0.523834H6.99996C3.42915 0.523834 0.525391 3.42841 0.525391 7.00002C0.525391 8.41669 0.981962 9.72974 1.7583 10.7959L0.9512 13.2018L3.44049 12.406C4.46453 13.0844 5.6861 13.4762 7.0032 13.4762C10.574 13.4762 13.4778 10.5708 13.4778 7.00002C13.4778 3.42922 10.574 0.523834 7.0032 0.523834ZM10.7715 9.66902C10.6153 10.1102 9.9952 10.4761 9.50058 10.583C9.1622 10.655 8.7202 10.7125 7.2323 10.0956C5.3291 9.30717 4.10349 7.37322 4.00796 7.24774C3.91649 7.12226 3.23891 6.22369 3.23891 5.29436C3.23891 4.36502 3.71087 3.9125 3.9011 3.71822C4.05734 3.55874 4.31558 3.48588 4.5633 3.48588C4.64344 3.48588 4.71549 3.48993 4.78025 3.49317C4.97049 3.50126 5.06601 3.5126 5.19149 3.81293C5.34772 4.18936 5.7282 5.11869 5.77353 5.21422C5.81968 5.30974 5.86582 5.43926 5.80106 5.56474C5.74034 5.69426 5.68691 5.75174 5.59139 5.86183C5.49587 5.97193 5.4052 6.05612 5.30968 6.17431C5.22225 6.27712 5.12349 6.38722 5.23358 6.57745C5.34368 6.76364 5.72415 7.38455 6.28434 7.88321C7.00725 8.52679 7.59334 8.73241 7.80301 8.81983C7.95925 8.8846 8.14544 8.86922 8.25958 8.74779C8.40449 8.59155 8.58339 8.3325 8.76553 8.0775C8.89506 7.89455 9.05858 7.87188 9.2302 7.93664C9.40506 7.99736 10.3303 8.45474 10.5206 8.54945C10.7108 8.64498 10.8363 8.69031 10.8824 8.77045C10.9278 8.8506 10.9278 9.22703 10.7715 9.66902Z" fill="white"/>
</svg>
